<?xml version="1.0" encoding="utf-8" standalone="no"?>
<!DOCTYPE svg PUBLIC "-//W3C//DTD SVG 1.1//EN"
  "http://www.w3.org/Graphics/SVG/1.1/DTD/svg11.dtd">
<!-- Created with matplotlib (https://matplotlib.org/) -->
<svg height="345.6pt" version="1.1" viewBox="0 0 762.48 345.6" width="762.48pt" xmlns="http://www.w3.org/2000/svg" xmlns:xlink="http://www.w3.org/1999/xlink">
 <defs>
  <style type="text/css">
*{stroke-linecap:butt;stroke-linejoin:round;}
  </style>
 </defs>
 <g id="figure_1">
  <g id="patch_1">
   <path d="M 0 345.6 
L 762.48 345.6 
L 762.48 0 
L 0 0 
z
" style="fill:#ffffff;"/>
  </g>
  <g id="axes_1">
   <g id="patch_2">
    <path d="M 95.31 307.584 
L 686.232 307.584 
L 686.232 41.472 
L 95.31 41.472 
z
" style="fill:#ffffff;"/>
   </g>
   <g id="matplotlib.axis_1">
    <g id="xtick_1">
     <g id="line2d_1">
      <defs>
       <path d="M 0 0 
L 0 3.5 
" id="m8a31b8832f" style="stroke:#000000;stroke-width:0.8;"/>
      </defs>
      <g>
       <use style="stroke:#000000;stroke-width:0.8;" x="122.170091" xlink:href="#m8a31b8832f" y="307.584"/>
      </g>
     </g>
     <g id="text_1">
      <!-- 0 -->
      <defs>
       <path d="M 31.78125 66.40625 
Q 24.171875 66.40625 20.328125 58.90625 
Q 16.5 51.421875 16.5 36.375 
Q 16.5 21.390625 20.328125 13.890625 
Q 24.171875 6.390625 31.78125 6.390625 
Q 39.453125 6.390625 43.28125 13.890625 
Q 47.125 21.390625 47.125 36.375 
Q 47.125 51.421875 43.28125 58.90625 
Q 39.453125 66.40625 31.78125 66.40625 
z
M 31.78125 74.21875 
Q 44.046875 74.21875 50.515625 64.515625 
Q 56.984375 54.828125 56.984375 36.375 
Q 56.984375 17.96875 50.515625 8.265625 
Q 44.046875 -1.421875 31.78125 -1.421875 
Q 19.53125 -1.421875 13.0625 8.265625 
Q 6.59375 17.96875 6.59375 36.375 
Q 6.59375 54.828125 13.0625 64.515625 
Q 19.53125 74.21875 31.78125 74.21875 
z
" id="DejaVuSans-48"/>
      </defs>
      <g transform="translate(118.988841 322.182437)scale(0.1 -0.1)">
       <use xlink:href="#DejaVuSans-48"/>
      </g>
     </g>
    </g>
    <g id="xtick_2">
     <g id="line2d_2">
      <g>
       <use style="stroke:#000000;stroke-width:0.8;" x="198.046054" xlink:href="#m8a31b8832f" y="307.584"/>
      </g>
     </g>
     <g id="text_2">
      <!-- 25 -->
      <defs>
       <path d="M 19.1875 8.296875 
L 53.609375 8.296875 
L 53.609375 0 
L 7.328125 0 
L 7.328125 8.296875 
Q 12.9375 14.109375 22.625 23.890625 
Q 32.328125 33.6875 34.8125 36.53125 
Q 39.546875 41.84375 41.421875 45.53125 
Q 43.3125 49.21875 43.3125 52.78125 
Q 43.3125 58.59375 39.234375 62.25 
Q 35.15625 65.921875 28.609375 65.921875 
Q 23.96875 65.921875 18.8125 64.3125 
Q 13.671875 62.703125 7.8125 59.421875 
L 7.8125 69.390625 
Q 13.765625 71.78125 18.9375 73 
Q 24.125 74.21875 28.421875 74.21875 
Q 39.75 74.21875 46.484375 68.546875 
Q 53.21875 62.890625 53.21875 53.421875 
Q 53.21875 48.921875 51.53125 44.890625 
Q 49.859375 40.875 45.40625 35.40625 
Q 44.1875 33.984375 37.640625 27.21875 
Q 31.109375 20.453125 19.1875 8.296875 
z
" id="DejaVuSans-50"/>
       <path d="M 10.796875 72.90625 
L 49.515625 72.90625 
L 49.515625 64.59375 
L 19.828125 64.59375 
L 19.828125 46.734375 
Q 21.96875 47.46875 24.109375 47.828125 
Q 26.265625 48.1875 28.421875 48.1875 
Q 40.625 48.1875 47.75 41.5 
Q 54.890625 34.8125 54.890625 23.390625 
Q 54.890625 11.625 47.5625 5.09375 
Q 40.234375 -1.421875 26.90625 -1.421875 
Q 22.3125 -1.421875 17.546875 -0.640625 
Q 12.796875 0.140625 7.71875 1.703125 
L 7.71875 11.625 
Q 12.109375 9.234375 16.796875 8.0625 
Q 21.484375 6.890625 26.703125 6.890625 
Q 35.15625 6.890625 40.078125 11.328125 
Q 45.015625 15.765625 45.015625 23.390625 
Q 45.015625 31 40.078125 35.4375 
Q 35.15625 39.890625 26.703125 39.890625 
Q 22.75 39.890625 18.8125 39.015625 
Q 14.890625 38.140625 10.796875 36.28125 
z
" id="DejaVuSans-53"/>
      </defs>
      <g transform="translate(191.683554 322.182437)scale(0.1 -0.1)">
       <use xlink:href="#DejaVuSans-50"/>
       <use x="63.623047" xlink:href="#DejaVuSans-53"/>
      </g>
     </g>
    </g>
    <g id="xtick_3">
     <g id="line2d_3">
      <g>
       <use style="stroke:#000000;stroke-width:0.8;" x="273.922017" xlink:href="#m8a31b8832f" y="307.584"/>
      </g>
     </g>
     <g id="text_3">
      <!-- 50 -->
      <g transform="translate(267.559517 322.182437)scale(0.1 -0.1)">
       <use xlink:href="#DejaVuSans-53"/>
       <use x="63.623047" xlink:href="#DejaVuSans-48"/>
      </g>
     </g>
    </g>
    <g id="xtick_4">
     <g id="line2d_4">
      <g>
       <use style="stroke:#000000;stroke-width:0.8;" x="349.79798" xlink:href="#m8a31b8832f" y="307.584"/>
      </g>
     </g>
     <g id="text_4">
      <!-- 75 -->
      <defs>
       <path d="M 8.203125 72.90625 
L 55.078125 72.90625 
L 55.078125 68.703125 
L 28.609375 0 
L 18.3125 0 
L 43.21875 64.59375 
L 8.203125 64.59375 
z
" id="DejaVuSans-55"/>
      </defs>
      <g transform="translate(343.43548 322.182437)scale(0.1 -0.1)">
       <use xlink:href="#DejaVuSans-55"/>
       <use x="63.623047" xlink:href="#DejaVuSans-53"/>
      </g>
     </g>
    </g>
    <g id="xtick_5">
     <g id="line2d_5">
      <g>
       <use style="stroke:#000000;stroke-width:0.8;" x="425.673943" xlink:href="#m8a31b8832f" y="307.584"/>
      </g>
     </g>
     <g id="text_5">
      <!-- 100 -->
      <defs>
       <path d="M 12.40625 8.296875 
L 28.515625 8.296875 
L 28.515625 63.921875 
L 10.984375 60.40625 
L 10.984375 69.390625 
L 28.421875 72.90625 
L 38.28125 72.90625 
L 38.28125 8.296875 
L 54.390625 8.296875 
L 54.390625 0 
L 12.40625 0 
z
" id="DejaVuSans-49"/>
      </defs>
      <g transform="translate(416.130193 322.182437)scale(0.1 -0.1)">
       <use xlink:href="#DejaVuSans-49"/>
       <use x="63.623047" xlink:href="#DejaVuSans-48"/>
       <use x="127.246094" xlink:href="#DejaVuSans-48"/>
      </g>
     </g>
    </g>
    <g id="xtick_6">
     <g id="line2d_6">
      <g>
       <use style="stroke:#000000;stroke-width:0.8;" x="501.549906" xlink:href="#m8a31b8832f" y="307.584"/>
      </g>
     </g>
     <g id="text_6">
      <!-- 125 -->
      <g transform="translate(492.006156 322.182437)scale(0.1 -0.1)">
       <use xlink:href="#DejaVuSans-49"/>
       <use x="63.623047" xlink:href="#DejaVuSans-50"/>
       <use x="127.246094" xlink:href="#DejaVuSans-53"/>
      </g>
     </g>
    </g>
    <g id="xtick_7">
     <g id="line2d_7">
      <g>
       <use style="stroke:#000000;stroke-width:0.8;" x="577.425869" xlink:href="#m8a31b8832f" y="307.584"/>
      </g>
     </g>
     <g id="text_7">
      <!-- 150 -->
      <g transform="translate(567.882119 322.182437)scale(0.1 -0.1)">
       <use xlink:href="#DejaVuSans-49"/>
       <use x="63.623047" xlink:href="#DejaVuSans-53"/>
       <use x="127.246094" xlink:href="#DejaVuSans-48"/>
      </g>
     </g>
    </g>
    <g id="xtick_8">
     <g id="line2d_8">
      <g>
       <use style="stroke:#000000;stroke-width:0.8;" x="653.301832" xlink:href="#m8a31b8832f" y="307.584"/>
      </g>
     </g>
     <g id="text_8">
      <!-- 175 -->
      <g transform="translate(643.758082 322.182437)scale(0.1 -0.1)">
       <use xlink:href="#DejaVuSans-49"/>
       <use x="63.623047" xlink:href="#DejaVuSans-55"/>
       <use x="127.246094" xlink:href="#DejaVuSans-53"/>
      </g>
     </g>
    </g>
   </g>
   <g id="matplotlib.axis_2">
    <g id="ytick_1">
     <g id="line2d_9">
      <defs>
       <path d="M 0 0 
L -3.5 0 
" id="m203f89f965" style="stroke:#000000;stroke-width:0.8;"/>
      </defs>
      <g>
       <use style="stroke:#000000;stroke-width:0.8;" x="95.31" xlink:href="#m203f89f965" y="265.258721"/>
      </g>
     </g>
     <g id="text_9">
      <!-- 0.2 -->
      <defs>
       <path d="M 10.6875 12.40625 
L 21 12.40625 
L 21 0 
L 10.6875 0 
z
" id="DejaVuSans-46"/>
      </defs>
      <g transform="translate(72.406875 269.057939)scale(0.1 -0.1)">
       <use xlink:href="#DejaVuSans-48"/>
       <use x="63.623047" xlink:href="#DejaVuSans-46"/>
       <use x="95.410156" xlink:href="#DejaVuSans-50"/>
      </g>
     </g>
    </g>
    <g id="ytick_2">
     <g id="line2d_10">
      <g>
       <use style="stroke:#000000;stroke-width:0.8;" x="95.31" xlink:href="#m203f89f965" y="212.33575"/>
      </g>
     </g>
     <g id="text_10">
      <!-- 0.4 -->
      <defs>
       <path d="M 37.796875 64.3125 
L 12.890625 25.390625 
L 37.796875 25.390625 
z
M 35.203125 72.90625 
L 47.609375 72.90625 
L 47.609375 25.390625 
L 58.015625 25.390625 
L 58.015625 17.1875 
L 47.609375 17.1875 
L 47.609375 0 
L 37.796875 0 
L 37.796875 17.1875 
L 4.890625 17.1875 
L 4.890625 26.703125 
z
" id="DejaVuSans-52"/>
      </defs>
      <g transform="translate(72.406875 216.134969)scale(0.1 -0.1)">
       <use xlink:href="#DejaVuSans-48"/>
       <use x="63.623047" xlink:href="#DejaVuSans-46"/>
       <use x="95.410156" xlink:href="#DejaVuSans-52"/>
      </g>
     </g>
    </g>
    <g id="ytick_3">
     <g id="line2d_11">
      <g>
       <use style="stroke:#000000;stroke-width:0.8;" x="95.31" xlink:href="#m203f89f965" y="159.412779"/>
      </g>
     </g>
     <g id="text_11">
      <!-- 0.6 -->
      <defs>
       <path d="M 33.015625 40.375 
Q 26.375 40.375 22.484375 35.828125 
Q 18.609375 31.296875 18.609375 23.390625 
Q 18.609375 15.53125 22.484375 10.953125 
Q 26.375 6.390625 33.015625 6.390625 
Q 39.65625 6.390625 43.53125 10.953125 
Q 47.40625 15.53125 47.40625 23.390625 
Q 47.40625 31.296875 43.53125 35.828125 
Q 39.65625 40.375 33.015625 40.375 
z
M 52.59375 71.296875 
L 52.59375 62.3125 
Q 48.875 64.0625 45.09375 64.984375 
Q 41.3125 65.921875 37.59375 65.921875 
Q 27.828125 65.921875 22.671875 59.328125 
Q 17.53125 52.734375 16.796875 39.40625 
Q 19.671875 43.65625 24.015625 45.921875 
Q 28.375 48.1875 33.59375 48.1875 
Q 44.578125 48.1875 50.953125 41.515625 
Q 57.328125 34.859375 57.328125 23.390625 
Q 57.328125 12.15625 50.6875 5.359375 
Q 44.046875 -1.421875 33.015625 -1.421875 
Q 20.359375 -1.421875 13.671875 8.265625 
Q 6.984375 17.96875 6.984375 36.375 
Q 6.984375 53.65625 15.1875 63.9375 
Q 23.390625 74.21875 37.203125 74.21875 
Q 40.921875 74.21875 44.703125 73.484375 
Q 48.484375 72.75 52.59375 71.296875 
z
" id="DejaVuSans-54"/>
      </defs>
      <g transform="translate(72.406875 163.211998)scale(0.1 -0.1)">
       <use xlink:href="#DejaVuSans-48"/>
       <use x="63.623047" xlink:href="#DejaVuSans-46"/>
       <use x="95.410156" xlink:href="#DejaVuSans-54"/>
      </g>
     </g>
    </g>
    <g id="ytick_4">
     <g id="line2d_12">
      <g>
       <use style="stroke:#000000;stroke-width:0.8;" x="95.31" xlink:href="#m203f89f965" y="106.489809"/>
      </g>
     </g>
     <g id="text_12">
      <!-- 0.8 -->
      <defs>
       <path d="M 31.78125 34.625 
Q 24.75 34.625 20.71875 30.859375 
Q 16.703125 27.09375 16.703125 20.515625 
Q 16.703125 13.921875 20.71875 10.15625 
Q 24.75 6.390625 31.78125 6.390625 
Q 38.8125 6.390625 42.859375 10.171875 
Q 46.921875 13.96875 46.921875 20.515625 
Q 46.921875 27.09375 42.890625 30.859375 
Q 38.875 34.625 31.78125 34.625 
z
M 21.921875 38.8125 
Q 15.578125 40.375 12.03125 44.71875 
Q 8.5 49.078125 8.5 55.328125 
Q 8.5 64.0625 14.71875 69.140625 
Q 20.953125 74.21875 31.78125 74.21875 
Q 42.671875 74.21875 48.875 69.140625 
Q 55.078125 64.0625 55.078125 55.328125 
Q 55.078125 49.078125 51.53125 44.71875 
Q 48 40.375 41.703125 38.8125 
Q 48.828125 37.15625 52.796875 32.3125 
Q 56.78125 27.484375 56.78125 20.515625 
Q 56.78125 9.90625 50.3125 4.234375 
Q 43.84375 -1.421875 31.78125 -1.421875 
Q 19.734375 -1.421875 13.25 4.234375 
Q 6.78125 9.90625 6.78125 20.515625 
Q 6.78125 27.484375 10.78125 32.3125 
Q 14.796875 37.15625 21.921875 38.8125 
z
M 18.3125 54.390625 
Q 18.3125 48.734375 21.84375 45.5625 
Q 25.390625 42.390625 31.78125 42.390625 
Q 38.140625 42.390625 41.71875 45.5625 
Q 45.3125 48.734375 45.3125 54.390625 
Q 45.3125 60.0625 41.71875 63.234375 
Q 38.140625 66.40625 31.78125 66.40625 
Q 25.390625 66.40625 21.84375 63.234375 
Q 18.3125 60.0625 18.3125 54.390625 
z
" id="DejaVuSans-56"/>
      </defs>
      <g transform="translate(72.406875 110.289027)scale(0.1 -0.1)">
       <use xlink:href="#DejaVuSans-48"/>
       <use x="63.623047" xlink:href="#DejaVuSans-46"/>
       <use x="95.410156" xlink:href="#DejaVuSans-56"/>
      </g>
     </g>
    </g>
    <g id="ytick_5">
     <g id="line2d_13">
      <g>
       <use style="stroke:#000000;stroke-width:0.8;" x="95.31" xlink:href="#m203f89f965" y="53.566838"/>
      </g>
     </g>
     <g id="text_13">
      <!-- 1.0 -->
      <g transform="translate(72.406875 57.366057)scale(0.1 -0.1)">
       <use xlink:href="#DejaVuSans-49"/>
       <use x="63.623047" xlink:href="#DejaVuSans-46"/>
       <use x="95.410156" xlink:href="#DejaVuSans-48"/>
      </g>
     </g>
    </g>
   </g>
   <g id="line2d_14">
    <path clip-path="url(#pb9e4eefb86)" d="M 122.170091 54.065227 
L 123.516461 53.569924 
L 124.862832 56.149574 
L 126.209202 53.808429 
L 127.555573 54.658624 
L 128.901943 54.7477 
L 130.248314 53.849019 
L 131.594684 56.098173 
L 132.941055 53.720465 
L 134.287425 56.773621 
L 135.633796 53.6742 
L 136.980166 55.984825 
L 138.326537 53.888719 
L 139.672907 54.559546 
L 141.019278 54.856875 
L 142.365648 53.794173 
L 143.712018 56.220186 
L 145.058389 53.703956 
L 146.404759 56.767027 
L 147.75113 53.696568 
L 149.0975 55.877623 
L 150.443871 53.949298 
L 153.136612 54.968928 
L 154.482982 53.761408 
L 155.829353 56.319862 
L 157.175723 53.703974 
L 158.522094 56.755838 
L 159.868464 53.717275 
L 161.214835 55.77633 
L 162.561205 54.014426 
L 163.907576 54.383091 
L 165.253946 55.086329 
L 166.600316 53.737192 
L 167.946687 56.414125 
L 169.293057 53.710958 
L 170.639428 56.739762 
L 171.985798 53.741928 
L 173.332169 55.675991 
L 174.678539 54.087162 
L 176.02491 54.302243 
L 177.37128 55.209433 
L 178.717651 53.719713 
L 180.064021 56.505142 
L 181.410392 53.723648 
L 182.756762 56.718366 
L 184.103133 53.772549 
L 185.449503 55.57517 
L 186.795874 54.168872 
L 188.142244 54.22596 
L 189.488614 55.338303 
L 190.834985 53.7086 
L 192.181355 56.593101 
L 193.527726 53.742175 
L 194.874096 56.691074 
L 196.220467 53.810617 
L 197.566837 55.47313 
L 198.913208 54.260557 
L 200.259578 54.154184 
L 201.605949 55.472842 
L 202.952319 53.704005 
L 204.29869 56.677538 
L 205.64506 53.767239 
L 206.991431 56.65718 
L 208.337801 53.857562 
L 209.684172 55.36935 
L 211.030542 54.363151 
L 212.376913 54.08698 
L 213.723283 55.612768 
L 215.069653 53.706456 
L 216.416024 56.757593 
L 217.762394 53.799954 
L 219.108765 56.615806 
L 220.455135 53.914921 
L 221.801506 55.263416 
L 223.147876 54.477499 
L 224.494247 54.024596 
L 225.840617 55.757665 
L 227.186988 53.716886 
L 228.533358 56.832887 
L 229.879729 53.844877 
L 231.226099 56.56563 
L 232.57247 53.984313 
L 233.91884 55.15416 
L 236.611581 53.967485 
L 237.957951 55.906254 
L 239.304322 53.736431 
L 240.650692 56.898554 
L 241.997063 53.894464 
L 243.343433 56.506073 
L 244.689804 54.067622 
L 246.036174 55.04263 
L 247.382545 54.743966 
L 248.728915 53.916378 
L 250.075286 56.05793 
L 251.421656 53.767096 
L 252.768027 56.955757 
L 254.114397 53.960292 
L 255.460768 56.435057 
L 256.807138 54.16661 
L 258.153509 54.927364 
L 259.499879 54.897458 
L 260.846249 53.872313 
L 262.19262 56.21039 
L 263.53899 53.811188 
L 264.885361 56.99958 
L 266.231731 54.041495 
L 267.578102 56.351039 
L 268.924472 54.282966 
L 270.270843 54.808048 
L 271.617213 55.064776 
L 272.963584 53.836573 
L 274.309954 56.360166 
L 275.656325 53.87188 
L 277.002695 57.023499 
L 278.349066 54.139756 
L 279.695436 56.251932 
L 281.041807 54.417204 
L 282.388177 54.683226 
L 283.734548 55.245782 
L 285.080918 53.809836 
L 286.427288 56.498222 
L 287.773659 53.953612 
L 289.120029 57.005946 
L 290.4664 54.249969 
L 291.81277 56.134227 
L 293.159141 54.559963 
L 294.505511 54.540897 
L 295.851882 55.439666 
L 297.198252 53.777081 
L 298.544623 56.523295 
L 299.890993 54.075348 
L 301.237364 55.698464 
L 302.583734 55.122319 
L 303.930105 56.030711 
L 305.276475 54.881673 
L 306.622846 54.505927 
L 307.969216 55.646338 
L 309.315586 53.851262 
L 310.661957 56.880023 
L 312.008327 54.190002 
L 313.354698 57.144772 
L 314.701068 54.663868 
L 316.047439 55.854768 
L 317.393809 55.019937 
L 318.74018 54.34415 
L 320.08655 55.86125 
L 321.432921 53.872208 
L 322.779291 56.965203 
L 324.125662 54.367609 
L 325.472032 57.042842 
L 326.818403 54.879196 
L 328.164773 55.67607 
L 329.511144 55.256393 
L 330.857514 54.22116 
L 332.203884 56.082024 
L 333.550255 53.939112 
L 334.896625 57.054209 
L 336.242996 54.591597 
L 337.589366 56.934411 
L 338.935737 55.151253 
L 340.282107 55.474581 
L 341.628478 55.528601 
L 342.974848 54.112253 
L 344.321219 56.302951 
L 345.667589 54.051527 
L 347.01396 57.116616 
L 348.36033 54.873934 
L 349.706701 56.789265 
L 351.053071 55.479291 
L 352.399442 55.249353 
L 353.745812 55.832037 
L 355.092183 54.02276 
L 356.438553 56.516064 
L 357.784923 54.221152 
L 359.131294 57.138293 
L 360.477664 55.227399 
L 361.824035 56.595772 
L 363.170405 55.868363 
L 364.516776 55.001938 
L 365.863146 56.162961 
L 367.209517 53.963462 
L 368.555887 56.710403 
L 369.902258 54.464193 
L 371.248628 57.105295 
L 372.594999 55.666543 
L 373.941369 56.345554 
L 375.28774 56.32355 
L 376.63411 54.737055 
L 377.980481 56.514849 
L 379.326851 53.950214 
L 380.673221 56.871141 
L 382.019592 54.801122 
L 383.365962 57.002283 
L 384.712333 56.206977 
L 386.058703 56.032552 
L 387.405074 56.847787 
L 388.751444 54.464289 
L 390.097815 56.876411 
L 391.444185 54.005172 
L 392.790556 56.978774 
L 394.136926 55.256731 
L 395.483297 56.812775 
L 396.829667 56.864432 
L 398.176038 55.654531 
L 399.522408 57.439548 
L 400.868779 54.200708 
L 402.215149 57.229556 
L 403.561519 54.158363 
L 404.90789 57.008839 
L 406.25426 55.860054 
L 407.600631 56.520798 
L 408.947001 57.65222 
L 410.293372 55.216306 
L 411.639742 58.089227 
L 412.986113 53.974211 
L 414.332483 57.546626 
L 415.678854 54.449529 
L 417.025224 56.931798 
L 418.371595 56.642591 
L 419.717965 56.114277 
L 421.064336 58.577046 
L 422.410706 54.73528 
L 423.757077 58.774384 
L 425.103447 53.828847 
L 426.449817 57.78798 
L 427.796188 54.928959 
L 429.142558 56.715144 
L 430.488929 57.63444 
L 431.835299 55.59155 
L 433.18167 59.631363 
L 434.52804 54.249543 
L 435.874411 59.451847 
L 437.220781 53.829678 
L 438.567152 57.89934 
L 439.913522 55.656916 
L 441.259893 56.32923 
L 442.606263 58.856561 
L 443.952634 54.973331 
L 445.299004 60.781533 
L 446.645375 53.83098 
L 447.991745 60.049333 
L 449.338116 54.069942 
L 450.684486 57.812534 
L 452.030856 56.697981 
L 453.377227 55.758725 
L 454.723597 60.303881 
L 456.069968 54.321824 
L 457.416338 61.948803 
L 458.762709 53.601535 
L 460.109079 60.454408 
L 461.45545 54.673847 
L 462.80182 57.452165 
L 464.148191 58.106323 
L 465.494561 55.027481 
L 466.840932 61.91844 
L 468.187302 53.771627 
L 469.533673 62.983704 
L 470.880043 53.753632 
L 472.226414 60.508367 
L 473.572784 55.791279 
L 474.919154 56.758131 
L 476.265525 59.892388 
L 477.611895 54.242346 
L 478.958266 63.544228 
L 480.304636 53.572836 
L 481.651007 63.636195 
L 482.997377 54.564304 
L 484.343748 60.015157 
L 485.690118 57.567361 
L 487.036489 55.738075 
L 488.382859 61.958463 
L 489.72923 53.66499 
L 491.0756 64.864268 
L 492.421971 54.138318 
L 493.768341 63.538868 
L 495.114712 56.380835 
L 496.461082 58.796092 
L 497.807452 60.060595 
L 499.153823 54.575552 
L 500.500193 63.990862 
L 501.846564 53.810632 
L 503.192934 65.340676 
L 504.539305 56.061439 
L 505.885675 62.253711 
L 508.578416 56.845457 
L 509.924787 63.064464 
L 511.271157 53.813671 
L 512.617528 65.317812 
L 513.963898 55.529049 
L 515.310269 64.233276 
L 516.656639 59.997676 
L 518.00301 59.4991 
L 519.34938 63.977047 
L 520.695751 54.669942 
L 522.042121 65.799631 
L 523.388491 54.582838 
L 524.734862 64.841053 
L 526.081232 59.893269 
L 527.427603 60.927451 
L 528.773973 66.170154 
L 530.120344 55.778707 
L 531.466714 68.770701 
L 532.813085 53.85053 
L 534.159455 66.591776 
L 535.505826 58.608158 
L 536.852196 61.4377 
L 538.198567 67.425733 
L 539.544937 56.035185 
L 540.891308 73.125667 
L 542.237678 53.590663 
L 543.584049 71.069283 
L 544.930419 57.415353 
L 546.276789 63.233725 
L 547.62316 67.101317 
L 548.96953 55.779792 
L 550.315901 75.87784 
L 551.662271 53.6957 
L 553.008642 75.889773 
L 554.355012 58.419197 
L 555.701383 66.501296 
L 557.047753 68.106635 
L 558.394124 56.096058 
L 559.740494 76.825012 
L 561.086865 54.411937 
L 562.433235 77.058571 
L 563.779606 62.991302 
L 565.125976 67.156683 
L 566.472347 74.740594 
L 567.818717 55.758117 
L 569.165087 80.381917 
L 570.511458 55.906833 
L 571.857828 74.851534 
L 573.204199 70.548354 
L 574.550569 62.082224 
L 575.89694 86.586919 
L 577.24331 53.682048 
L 578.589681 87.74476 
L 579.936051 60.651701 
L 581.282422 71.802367 
L 582.628792 80.851881 
L 583.975163 55.413841 
L 585.321533 94.838725 
L 586.667904 58.098101 
L 588.014274 85.504614 
L 589.360645 79.806724 
L 590.707015 61.841073 
L 592.053386 98.084642 
L 593.399756 55.429761 
L 594.746126 89.516252 
L 596.092497 82.196138 
L 597.438867 62.515446 
L 598.785238 111.395048 
L 600.131608 55.778986 
L 601.477979 100.767231 
L 602.824349 87.441121 
L 604.17072 62.32566 
L 605.51709 116.523829 
L 606.863461 62.178736 
L 608.209831 92.122497 
L 609.556202 114.434727 
L 610.902572 54.279823 
L 612.248943 130.809812 
L 613.595313 85.926118 
L 614.941684 73.398564 
L 616.288054 140.538896 
L 617.634424 66.251997 
L 618.980795 95.775776 
L 620.327165 148.306337 
L 621.673536 58.078638 
L 623.019906 122.921397 
L 624.366277 154.440827 
L 625.712647 54.965408 
L 627.059018 133.619546 
L 628.405388 166.053442 
L 629.751759 60.891531 
L 631.098129 115.52841 
L 632.4445 201.85556 
L 633.79087 96.892608 
L 635.137241 73.7133 
L 636.483611 207.63892 
L 637.829982 190.497606 
L 639.176352 66.404632 
L 640.522722 95.718764 
L 641.869093 225.060523 
L 643.215463 238.635671 
L 644.561834 123.784754 
L 645.908204 53.569682 
L 647.254575 120.0048 
L 648.600945 238.869138 
L 649.947316 295.488 
L 651.293686 266.318358 
L 653.986427 128.016228 
L 655.332798 83.313102 
L 656.679168 61.438752 
L 658.025539 54.416286 
L 659.371909 53.568 
L 659.371909 53.568 
" style="fill:none;stroke:#1f77b4;stroke-linecap:square;stroke-width:1.5;"/>
   </g>
   <g id="patch_3">
    <path d="M 95.31 307.584 
L 95.31 41.472 
" style="fill:none;stroke:#000000;stroke-linecap:square;stroke-linejoin:miter;stroke-width:0.8;"/>
   </g>
   <g id="patch_4">
    <path d="M 686.232 307.584 
L 686.232 41.472 
" style="fill:none;stroke:#000000;stroke-linecap:square;stroke-linejoin:miter;stroke-width:0.8;"/>
   </g>
   <g id="patch_5">
    <path d="M 95.31 307.584 
L 686.232 307.584 
" style="fill:none;stroke:#000000;stroke-linecap:square;stroke-linejoin:miter;stroke-width:0.8;"/>
   </g>
   <g id="patch_6">
    <path d="M 95.31 41.472 
L 686.232 41.472 
" style="fill:none;stroke:#000000;stroke-linecap:square;stroke-linejoin:miter;stroke-width:0.8;"/>
   </g>
  </g>
 </g>
 <defs>
  <clipPath id="pb9e4eefb86">
   <rect height="266.112" width="590.922" x="95.31" y="41.472"/>
  </clipPath>
 </defs>
</svg>
