<?xml version="1.0" encoding="utf-8" standalone="no"?>
<!DOCTYPE svg PUBLIC "-//W3C//DTD SVG 1.1//EN"
  "http://www.w3.org/Graphics/SVG/1.1/DTD/svg11.dtd">
<!-- Created with matplotlib (https://matplotlib.org/) -->
<svg height="345.6pt" version="1.1" viewBox="0 0 460.8 345.6" width="460.8pt" xmlns="http://www.w3.org/2000/svg" xmlns:xlink="http://www.w3.org/1999/xlink">
 <defs>
  <style type="text/css">
*{stroke-linecap:butt;stroke-linejoin:round;}
  </style>
 </defs>
 <g id="figure_1">
  <g id="patch_1">
   <path d="M 0 345.6 
L 460.8 345.6 
L 460.8 0 
L 0 0 
z
" style="fill:#ffffff;"/>
  </g>
  <g id="axes_1">
   <g id="patch_2">
    <path d="M 57.6 307.584 
L 414.72 307.584 
L 414.72 41.472 
L 57.6 41.472 
z
" style="fill:#ffffff;"/>
   </g>
   <g id="matplotlib.axis_1">
    <g id="xtick_1">
     <g id="line2d_1">
      <defs>
       <path d="M 0 0 
L 0 3.5 
" id="mbb030404d0" style="stroke:#000000;stroke-width:0.8;"/>
      </defs>
      <g>
       <use style="stroke:#000000;stroke-width:0.8;" x="73.832727" xlink:href="#mbb030404d0" y="307.584"/>
      </g>
     </g>
     <g id="text_1">
      <!-- 100 -->
      <defs>
       <path d="M 12.40625 8.296875 
L 28.515625 8.296875 
L 28.515625 63.921875 
L 10.984375 60.40625 
L 10.984375 69.390625 
L 28.421875 72.90625 
L 38.28125 72.90625 
L 38.28125 8.296875 
L 54.390625 8.296875 
L 54.390625 0 
L 12.40625 0 
z
" id="DejaVuSans-49"/>
       <path d="M 31.78125 66.40625 
Q 24.171875 66.40625 20.328125 58.90625 
Q 16.5 51.421875 16.5 36.375 
Q 16.5 21.390625 20.328125 13.890625 
Q 24.171875 6.390625 31.78125 6.390625 
Q 39.453125 6.390625 43.28125 13.890625 
Q 47.125 21.390625 47.125 36.375 
Q 47.125 51.421875 43.28125 58.90625 
Q 39.453125 66.40625 31.78125 66.40625 
z
M 31.78125 74.21875 
Q 44.046875 74.21875 50.515625 64.515625 
Q 56.984375 54.828125 56.984375 36.375 
Q 56.984375 17.96875 50.515625 8.265625 
Q 44.046875 -1.421875 31.78125 -1.421875 
Q 19.53125 -1.421875 13.0625 8.265625 
Q 6.59375 17.96875 6.59375 36.375 
Q 6.59375 54.828125 13.0625 64.515625 
Q 19.53125 74.21875 31.78125 74.21875 
z
" id="DejaVuSans-48"/>
      </defs>
      <g transform="translate(64.288977 322.182437)scale(0.1 -0.1)">
       <use xlink:href="#DejaVuSans-49"/>
       <use x="63.623047" xlink:href="#DejaVuSans-48"/>
       <use x="127.246094" xlink:href="#DejaVuSans-48"/>
      </g>
     </g>
    </g>
    <g id="xtick_2">
     <g id="line2d_2">
      <g>
       <use style="stroke:#000000;stroke-width:0.8;" x="117.12" xlink:href="#mbb030404d0" y="307.584"/>
      </g>
     </g>
     <g id="text_2">
      <!-- 120 -->
      <defs>
       <path d="M 19.1875 8.296875 
L 53.609375 8.296875 
L 53.609375 0 
L 7.328125 0 
L 7.328125 8.296875 
Q 12.9375 14.109375 22.625 23.890625 
Q 32.328125 33.6875 34.8125 36.53125 
Q 39.546875 41.84375 41.421875 45.53125 
Q 43.3125 49.21875 43.3125 52.78125 
Q 43.3125 58.59375 39.234375 62.25 
Q 35.15625 65.921875 28.609375 65.921875 
Q 23.96875 65.921875 18.8125 64.3125 
Q 13.671875 62.703125 7.8125 59.421875 
L 7.8125 69.390625 
Q 13.765625 71.78125 18.9375 73 
Q 24.125 74.21875 28.421875 74.21875 
Q 39.75 74.21875 46.484375 68.546875 
Q 53.21875 62.890625 53.21875 53.421875 
Q 53.21875 48.921875 51.53125 44.890625 
Q 49.859375 40.875 45.40625 35.40625 
Q 44.1875 33.984375 37.640625 27.21875 
Q 31.109375 20.453125 19.1875 8.296875 
z
" id="DejaVuSans-50"/>
      </defs>
      <g transform="translate(107.57625 322.182437)scale(0.1 -0.1)">
       <use xlink:href="#DejaVuSans-49"/>
       <use x="63.623047" xlink:href="#DejaVuSans-50"/>
       <use x="127.246094" xlink:href="#DejaVuSans-48"/>
      </g>
     </g>
    </g>
    <g id="xtick_3">
     <g id="line2d_3">
      <g>
       <use style="stroke:#000000;stroke-width:0.8;" x="160.407273" xlink:href="#mbb030404d0" y="307.584"/>
      </g>
     </g>
     <g id="text_3">
      <!-- 140 -->
      <defs>
       <path d="M 37.796875 64.3125 
L 12.890625 25.390625 
L 37.796875 25.390625 
z
M 35.203125 72.90625 
L 47.609375 72.90625 
L 47.609375 25.390625 
L 58.015625 25.390625 
L 58.015625 17.1875 
L 47.609375 17.1875 
L 47.609375 0 
L 37.796875 0 
L 37.796875 17.1875 
L 4.890625 17.1875 
L 4.890625 26.703125 
z
" id="DejaVuSans-52"/>
      </defs>
      <g transform="translate(150.863523 322.182437)scale(0.1 -0.1)">
       <use xlink:href="#DejaVuSans-49"/>
       <use x="63.623047" xlink:href="#DejaVuSans-52"/>
       <use x="127.246094" xlink:href="#DejaVuSans-48"/>
      </g>
     </g>
    </g>
    <g id="xtick_4">
     <g id="line2d_4">
      <g>
       <use style="stroke:#000000;stroke-width:0.8;" x="203.694545" xlink:href="#mbb030404d0" y="307.584"/>
      </g>
     </g>
     <g id="text_4">
      <!-- 160 -->
      <defs>
       <path d="M 33.015625 40.375 
Q 26.375 40.375 22.484375 35.828125 
Q 18.609375 31.296875 18.609375 23.390625 
Q 18.609375 15.53125 22.484375 10.953125 
Q 26.375 6.390625 33.015625 6.390625 
Q 39.65625 6.390625 43.53125 10.953125 
Q 47.40625 15.53125 47.40625 23.390625 
Q 47.40625 31.296875 43.53125 35.828125 
Q 39.65625 40.375 33.015625 40.375 
z
M 52.59375 71.296875 
L 52.59375 62.3125 
Q 48.875 64.0625 45.09375 64.984375 
Q 41.3125 65.921875 37.59375 65.921875 
Q 27.828125 65.921875 22.671875 59.328125 
Q 17.53125 52.734375 16.796875 39.40625 
Q 19.671875 43.65625 24.015625 45.921875 
Q 28.375 48.1875 33.59375 48.1875 
Q 44.578125 48.1875 50.953125 41.515625 
Q 57.328125 34.859375 57.328125 23.390625 
Q 57.328125 12.15625 50.6875 5.359375 
Q 44.046875 -1.421875 33.015625 -1.421875 
Q 20.359375 -1.421875 13.671875 8.265625 
Q 6.984375 17.96875 6.984375 36.375 
Q 6.984375 53.65625 15.1875 63.9375 
Q 23.390625 74.21875 37.203125 74.21875 
Q 40.921875 74.21875 44.703125 73.484375 
Q 48.484375 72.75 52.59375 71.296875 
z
" id="DejaVuSans-54"/>
      </defs>
      <g transform="translate(194.150795 322.182437)scale(0.1 -0.1)">
       <use xlink:href="#DejaVuSans-49"/>
       <use x="63.623047" xlink:href="#DejaVuSans-54"/>
       <use x="127.246094" xlink:href="#DejaVuSans-48"/>
      </g>
     </g>
    </g>
    <g id="xtick_5">
     <g id="line2d_5">
      <g>
       <use style="stroke:#000000;stroke-width:0.8;" x="246.981818" xlink:href="#mbb030404d0" y="307.584"/>
      </g>
     </g>
     <g id="text_5">
      <!-- 180 -->
      <defs>
       <path d="M 31.78125 34.625 
Q 24.75 34.625 20.71875 30.859375 
Q 16.703125 27.09375 16.703125 20.515625 
Q 16.703125 13.921875 20.71875 10.15625 
Q 24.75 6.390625 31.78125 6.390625 
Q 38.8125 6.390625 42.859375 10.171875 
Q 46.921875 13.96875 46.921875 20.515625 
Q 46.921875 27.09375 42.890625 30.859375 
Q 38.875 34.625 31.78125 34.625 
z
M 21.921875 38.8125 
Q 15.578125 40.375 12.03125 44.71875 
Q 8.5 49.078125 8.5 55.328125 
Q 8.5 64.0625 14.71875 69.140625 
Q 20.953125 74.21875 31.78125 74.21875 
Q 42.671875 74.21875 48.875 69.140625 
Q 55.078125 64.0625 55.078125 55.328125 
Q 55.078125 49.078125 51.53125 44.71875 
Q 48 40.375 41.703125 38.8125 
Q 48.828125 37.15625 52.796875 32.3125 
Q 56.78125 27.484375 56.78125 20.515625 
Q 56.78125 9.90625 50.3125 4.234375 
Q 43.84375 -1.421875 31.78125 -1.421875 
Q 19.734375 -1.421875 13.25 4.234375 
Q 6.78125 9.90625 6.78125 20.515625 
Q 6.78125 27.484375 10.78125 32.3125 
Q 14.796875 37.15625 21.921875 38.8125 
z
M 18.3125 54.390625 
Q 18.3125 48.734375 21.84375 45.5625 
Q 25.390625 42.390625 31.78125 42.390625 
Q 38.140625 42.390625 41.71875 45.5625 
Q 45.3125 48.734375 45.3125 54.390625 
Q 45.3125 60.0625 41.71875 63.234375 
Q 38.140625 66.40625 31.78125 66.40625 
Q 25.390625 66.40625 21.84375 63.234375 
Q 18.3125 60.0625 18.3125 54.390625 
z
" id="DejaVuSans-56"/>
      </defs>
      <g transform="translate(237.438068 322.182437)scale(0.1 -0.1)">
       <use xlink:href="#DejaVuSans-49"/>
       <use x="63.623047" xlink:href="#DejaVuSans-56"/>
       <use x="127.246094" xlink:href="#DejaVuSans-48"/>
      </g>
     </g>
    </g>
    <g id="xtick_6">
     <g id="line2d_6">
      <g>
       <use style="stroke:#000000;stroke-width:0.8;" x="290.269091" xlink:href="#mbb030404d0" y="307.584"/>
      </g>
     </g>
     <g id="text_6">
      <!-- 200 -->
      <g transform="translate(280.725341 322.182437)scale(0.1 -0.1)">
       <use xlink:href="#DejaVuSans-50"/>
       <use x="63.623047" xlink:href="#DejaVuSans-48"/>
       <use x="127.246094" xlink:href="#DejaVuSans-48"/>
      </g>
     </g>
    </g>
    <g id="xtick_7">
     <g id="line2d_7">
      <g>
       <use style="stroke:#000000;stroke-width:0.8;" x="333.556364" xlink:href="#mbb030404d0" y="307.584"/>
      </g>
     </g>
     <g id="text_7">
      <!-- 220 -->
      <g transform="translate(324.012614 322.182437)scale(0.1 -0.1)">
       <use xlink:href="#DejaVuSans-50"/>
       <use x="63.623047" xlink:href="#DejaVuSans-50"/>
       <use x="127.246094" xlink:href="#DejaVuSans-48"/>
      </g>
     </g>
    </g>
    <g id="xtick_8">
     <g id="line2d_8">
      <g>
       <use style="stroke:#000000;stroke-width:0.8;" x="376.843636" xlink:href="#mbb030404d0" y="307.584"/>
      </g>
     </g>
     <g id="text_8">
      <!-- 240 -->
      <g transform="translate(367.299886 322.182437)scale(0.1 -0.1)">
       <use xlink:href="#DejaVuSans-50"/>
       <use x="63.623047" xlink:href="#DejaVuSans-52"/>
       <use x="127.246094" xlink:href="#DejaVuSans-48"/>
      </g>
     </g>
    </g>
   </g>
   <g id="matplotlib.axis_2">
    <g id="ytick_1">
     <g id="line2d_9">
      <defs>
       <path d="M 0 0 
L -3.5 0 
" id="mb01bedf36f" style="stroke:#000000;stroke-width:0.8;"/>
      </defs>
      <g>
       <use style="stroke:#000000;stroke-width:0.8;" x="57.6" xlink:href="#mb01bedf36f" y="264.907657"/>
      </g>
     </g>
     <g id="text_9">
      <!-- 0.2 -->
      <defs>
       <path d="M 10.6875 12.40625 
L 21 12.40625 
L 21 0 
L 10.6875 0 
z
" id="DejaVuSans-46"/>
      </defs>
      <g transform="translate(34.696875 268.706876)scale(0.1 -0.1)">
       <use xlink:href="#DejaVuSans-48"/>
       <use x="63.623047" xlink:href="#DejaVuSans-46"/>
       <use x="95.410156" xlink:href="#DejaVuSans-50"/>
      </g>
     </g>
    </g>
    <g id="ytick_2">
     <g id="line2d_10">
      <g>
       <use style="stroke:#000000;stroke-width:0.8;" x="57.6" xlink:href="#mb01bedf36f" y="212.072161"/>
      </g>
     </g>
     <g id="text_10">
      <!-- 0.4 -->
      <g transform="translate(34.696875 215.871379)scale(0.1 -0.1)">
       <use xlink:href="#DejaVuSans-48"/>
       <use x="63.623047" xlink:href="#DejaVuSans-46"/>
       <use x="95.410156" xlink:href="#DejaVuSans-52"/>
      </g>
     </g>
    </g>
    <g id="ytick_3">
     <g id="line2d_11">
      <g>
       <use style="stroke:#000000;stroke-width:0.8;" x="57.6" xlink:href="#mb01bedf36f" y="159.236664"/>
      </g>
     </g>
     <g id="text_11">
      <!-- 0.6 -->
      <g transform="translate(34.696875 163.035883)scale(0.1 -0.1)">
       <use xlink:href="#DejaVuSans-48"/>
       <use x="63.623047" xlink:href="#DejaVuSans-46"/>
       <use x="95.410156" xlink:href="#DejaVuSans-54"/>
      </g>
     </g>
    </g>
    <g id="ytick_4">
     <g id="line2d_12">
      <g>
       <use style="stroke:#000000;stroke-width:0.8;" x="57.6" xlink:href="#mb01bedf36f" y="106.401168"/>
      </g>
     </g>
     <g id="text_12">
      <!-- 0.8 -->
      <g transform="translate(34.696875 110.200386)scale(0.1 -0.1)">
       <use xlink:href="#DejaVuSans-48"/>
       <use x="63.623047" xlink:href="#DejaVuSans-46"/>
       <use x="95.410156" xlink:href="#DejaVuSans-56"/>
      </g>
     </g>
    </g>
    <g id="ytick_5">
     <g id="line2d_13">
      <g>
       <use style="stroke:#000000;stroke-width:0.8;" x="57.6" xlink:href="#mb01bedf36f" y="53.565671"/>
      </g>
     </g>
     <g id="text_13">
      <!-- 1.0 -->
      <g transform="translate(34.696875 57.36489)scale(0.1 -0.1)">
       <use xlink:href="#DejaVuSans-49"/>
       <use x="63.623047" xlink:href="#DejaVuSans-46"/>
       <use x="95.410156" xlink:href="#DejaVuSans-48"/>
      </g>
     </g>
    </g>
   </g>
   <g id="line2d_14">
    <path clip-path="url(#p0253ad5db8)" d="M 73.832727 55.50799 
L 74.646398 59.009058 
L 75.460068 54.14835 
L 77.087409 59.088728 
L 77.90108 54.012216 
L 78.714751 57.904628 
L 79.528421 56.767943 
L 80.342092 55.218869 
L 81.155762 59.678651 
L 81.969433 54.243488 
L 82.783103 56.416449 
L 83.596774 59.825419 
L 84.410444 53.846364 
L 85.224115 58.178175 
L 86.037785 57.252297 
L 86.851456 54.890664 
L 87.665126 60.398905 
L 88.478797 54.396298 
L 89.292468 56.210937 
L 90.106138 60.639559 
L 90.919809 53.696996 
L 91.733479 58.442523 
L 92.54715 57.830146 
L 93.36082 54.534288 
L 94.174491 61.149479 
L 94.988161 54.638853 
L 95.801832 55.95694 
L 96.615502 61.52375 
L 97.429173 53.600311 
L 98.242843 58.669424 
L 99.056514 58.520219 
L 99.870185 54.17182 
L 100.683855 61.894922 
L 101.497526 55.017035 
L 102.311196 55.646243 
L 103.124867 62.458606 
L 103.938537 53.612909 
L 104.752208 58.81714 
L 105.565878 59.341813 
L 106.379549 53.843008 
L 107.193219 62.577821 
L 108.00689 55.593626 
L 108.82056 55.274406 
L 109.634231 63.405525 
L 110.447902 53.8203 
L 111.261572 58.828643 
L 112.075243 60.310456 
L 112.888913 53.614069 
L 113.702584 63.110444 
L 114.516254 56.450469 
L 115.329925 54.846784 
L 116.143595 64.29608 
L 116.957266 54.344963 
L 117.770936 58.631273 
L 118.584607 61.430117 
L 119.398278 53.591755 
L 120.211948 63.368243 
L 121.025619 57.687315 
L 121.839289 54.391766 
L 122.65296 65.018604 
L 123.46663 55.353678 
L 124.280301 58.144141 
L 125.093971 62.676892 
L 125.907642 53.938561 
L 126.721312 63.186572 
L 127.534983 59.408506 
L 128.348653 53.983927 
L 129.162324 65.402802 
L 129.975995 57.056409 
L 130.789665 57.301788 
L 131.603336 63.970882 
L 132.417006 54.889226 
L 133.230677 62.374278 
L 134.044347 61.688652 
L 134.858018 53.780989 
L 135.671688 65.209179 
L 136.485359 59.678992 
L 137.299029 56.108231 
L 138.1127 65.132232 
L 138.92637 56.754332 
L 140.553712 64.497315 
L 141.367382 54.079653 
L 142.181053 64.145104 
L 142.994723 63.381204 
L 143.808394 54.745841 
L 144.622064 65.822319 
L 145.435735 59.881645 
L 146.249405 58.34795 
L 147.063076 67.557063 
L 147.876746 55.375857 
L 149.504087 68.069028 
L 150.317758 53.761059 
L 151.131429 65.504885 
L 151.945099 64.509629 
L 152.75877 55.540732 
L 153.57244 70.129159 
L 154.386111 58.37199 
L 155.199781 58.636761 
L 156.013452 73.041123 
L 156.827122 54.300161 
L 157.640793 63.521876 
L 158.454463 70.396788 
L 159.268134 53.633664 
L 160.081805 70.815467 
L 160.895475 63.761642 
L 161.709146 55.048318 
L 162.522816 76.496184 
L 163.336487 58.195083 
L 164.150157 59.560323 
L 164.963828 76.109189 
L 165.777498 55.252112 
L 166.591169 67.769136 
L 167.404839 71.419329 
L 168.21851 53.713598 
L 169.03218 75.33247 
L 169.845851 67.218685 
L 170.659522 54.954949 
L 171.473192 78.173419 
L 172.286863 63.951511 
L 173.100533 60.36728 
L 173.914204 78.583933 
L 174.727874 59.338247 
L 175.541545 66.806501 
L 176.355215 80.126168 
L 177.168886 54.884744 
L 177.982556 71.746302 
L 178.796227 80.531562 
L 179.609897 53.732108 
L 180.423568 78.043776 
L 181.237239 75.797317 
L 182.050909 55.087539 
L 182.86458 87.123783 
L 183.67825 68.18421 
L 184.491921 57.661781 
L 185.305591 93.704546 
L 186.119262 63.125167 
L 186.932932 63.494717 
L 187.746603 93.916888 
L 188.560273 60.908211 
L 189.373944 72.044363 
L 190.187614 92.829878 
L 191.001285 58.33941 
L 192.628626 96.343004 
L 193.442297 55.425579 
L 194.255967 81.129361 
L 195.069638 100.995202 
L 195.883308 54.087834 
L 196.696979 87.174066 
L 197.510649 100.979775 
L 198.32432 54.187314 
L 199.13799 95.566311 
L 199.951661 101.01947 
L 200.765332 54.654054 
L 201.579002 97.588048 
L 202.392673 109.810921 
L 203.206343 54.935698 
L 204.020014 93.38053 
L 204.833684 123.197395 
L 205.647355 56.991894 
L 206.461025 90.580536 
L 207.274696 131.432003 
L 208.088366 66.823823 
L 208.902037 82.981369 
L 209.715707 140.072275 
L 210.529378 85.821475 
L 211.343049 64.400912 
L 212.156719 148.441116 
L 212.97039 114.901251 
L 213.78406 53.682216 
L 214.597731 126.354132 
L 215.411401 160.924192 
L 216.225072 71.160787 
L 217.038742 76.884926 
L 217.852413 177.456175 
L 218.666083 140.741648 
L 219.479754 55.186975 
L 220.293424 110.73848 
L 221.107095 204.331939 
L 221.920766 138.214303 
L 222.734436 54.439634 
L 223.548107 114.082594 
L 224.361777 221.780635 
L 225.175448 185.155429 
L 225.989118 75.261142 
L 226.802789 67.794863 
L 227.616459 177.302033 
L 228.43013 257.642241 
L 229.2438 206.882783 
L 230.057471 106.440387 
L 230.871141 53.587634 
L 231.684812 103.830244 
L 232.498483 201.485338 
L 233.312153 274.634593 
L 234.125824 295.488 
L 234.939494 254.172995 
L 235.753165 189.106521 
L 236.566835 134.474949 
L 237.380506 91.588098 
L 238.194176 64.947236 
L 239.007847 55.841746 
L 239.821517 54.046711 
L 240.635188 53.577789 
L 241.448859 53.568 
L 242.262529 54.506331 
L 243.0762 61.819207 
L 243.88987 79.771173 
L 244.703541 110.488096 
L 245.517211 163.612922 
L 246.330882 232.27057 
L 247.144552 280.007862 
L 247.958223 285.501723 
L 248.771893 235.932267 
L 249.585564 135.329354 
L 250.399234 60.321538 
L 251.212905 71.522808 
L 252.840246 249.126062 
L 253.653917 211.219683 
L 254.467587 103.164947 
L 255.281258 55.135662 
L 256.908599 217.088874 
L 257.722269 159.593391 
L 258.53594 61.975408 
L 259.34961 95.179388 
L 260.163281 187.536638 
L 260.976951 152.42182 
L 261.790622 60.390527 
L 262.604293 99.010437 
L 263.417963 173.944394 
L 265.045304 53.883993 
L 265.858975 129.000766 
L 266.672645 148.384309 
L 267.486316 67.34697 
L 268.299986 78.432405 
L 269.113657 150.061329 
L 269.927327 90.367204 
L 270.740998 57.878002 
L 271.554668 125.955659 
L 272.368339 110.780583 
L 273.18201 53.659836 
L 273.99568 103.826447 
L 274.809351 116.580641 
L 275.623021 55.416889 
L 276.436692 93.375978 
L 277.250362 111.21226 
L 278.064033 58.703671 
L 279.691374 108.922459 
L 280.505044 58.814365 
L 281.318715 76.940237 
L 282.132386 107.96946 
L 282.946056 57.84923 
L 283.759727 74.911651 
L 284.573397 101.161572 
L 285.387068 57.770569 
L 286.200738 77.611236 
L 287.014409 92.715211 
L 287.828079 56.444708 
L 288.64175 78.951097 
L 289.45542 88.724504 
L 290.269091 54.224475 
L 291.082761 78.033563 
L 291.896432 85.645453 
L 292.710103 53.632175 
L 293.523773 79.424904 
L 294.337444 78.266601 
L 295.151114 54.29762 
L 295.964785 83.624652 
L 297.592126 55.51177 
L 298.405796 85.128313 
L 299.219467 63.303633 
L 300.033137 59.119274 
L 300.846808 81.459692 
L 301.660478 59.485387 
L 302.474149 64.938272 
L 303.28782 76.643032 
L 304.10149 55.604925 
L 304.915161 69.240059 
L 305.728831 73.531409 
L 306.542502 53.571634 
L 307.356172 70.851254 
L 308.169843 69.4934 
L 308.983513 54.969532 
L 309.797184 72.512197 
L 310.610854 62.733795 
L 311.424525 57.690917 
L 312.238195 74.493308 
L 313.051866 56.572384 
L 313.865537 60.597288 
L 314.679207 73.096374 
L 315.492878 53.994221 
L 316.306548 65.071255 
L 317.120219 67.199412 
L 317.933889 53.831487 
L 318.74756 69.938674 
L 319.56123 60.735022 
L 320.374901 55.1558 
L 321.188571 71.12578 
L 322.002242 56.80543 
L 322.815913 59.083682 
L 323.629583 67.726551 
L 324.443254 54.556471 
L 325.256924 64.283708 
L 326.070595 63.236866 
L 326.884265 53.597658 
L 327.697936 66.868158 
L 328.511606 59.92033 
L 329.325277 55.556741 
L 330.138947 65.885242 
L 330.952618 56.790608 
L 331.766288 59.66058 
L 332.579959 63.911172 
L 333.39363 54.031165 
L 334.2073 62.546057 
L 335.020971 62.022775 
L 335.834641 53.972942 
L 336.648312 63.229994 
L 337.461982 58.888142 
L 338.275653 56.566391 
L 339.089323 63.380116 
L 339.902994 55.112621 
L 341.530335 62.964136 
L 342.344005 53.569857 
L 343.157676 60.657906 
L 343.971347 60.277482 
L 344.785017 54.793642 
L 345.598688 62.258346 
L 346.412358 56.161747 
L 347.226029 56.674039 
L 348.039699 63.01342 
L 348.85337 53.762505 
L 349.66704 58.534011 
L 350.480711 60.925732 
L 351.294381 53.956673 
L 352.108052 60.954692 
L 352.921722 56.928301 
L 353.735393 55.143174 
L 354.549064 62.49979 
L 355.362734 54.190548 
L 356.176405 56.926989 
L 356.990075 60.995792 
L 357.803746 53.706059 
L 358.617416 59.69225 
L 359.431087 57.378765 
L 360.244757 54.265097 
L 361.058428 61.68919 
L 361.872098 54.661862 
L 362.685769 55.776616 
L 363.49944 60.68223 
L 364.31311 53.784947 
L 365.126781 58.571187 
L 365.940451 57.566305 
L 366.754122 53.824983 
L 367.567792 60.763337 
L 368.381463 55.08765 
L 369.195133 54.984604 
L 370.008804 60.148337 
L 370.822474 54.02365 
L 371.636145 57.621748 
L 372.449815 57.564181 
L 373.263486 53.657274 
L 374.077157 59.833441 
L 374.890827 55.435328 
L 375.704498 54.455172 
L 376.518168 59.512132 
L 377.331839 54.318613 
L 378.145509 56.839748 
L 378.95918 57.439631 
L 379.77285 53.645576 
L 380.586521 58.960578 
L 381.400191 55.700567 
L 382.213862 54.110091 
L 383.027532 58.851257 
L 383.841203 54.610927 
L 384.654874 56.20611 
L 385.468544 57.244714 
L 386.282215 53.713508 
L 387.095885 58.173732 
L 388.723226 53.889867 
L 389.536897 58.212654 
L 390.350567 54.870284 
L 391.164238 55.697315 
L 391.977908 57.016141 
L 392.791579 53.813047 
L 393.605249 57.482237 
L 394.41892 56.019352 
L 395.232591 53.752503 
L 396.046261 57.622091 
L 396.859932 55.083816 
L 397.673602 55.291046 
L 398.487273 56.778629 
L 398.487273 56.778629 
" style="fill:none;stroke:#1f77b4;stroke-linecap:square;stroke-width:1.5;"/>
   </g>
   <g id="patch_3">
    <path d="M 57.6 307.584 
L 57.6 41.472 
" style="fill:none;stroke:#000000;stroke-linecap:square;stroke-linejoin:miter;stroke-width:0.8;"/>
   </g>
   <g id="patch_4">
    <path d="M 414.72 307.584 
L 414.72 41.472 
" style="fill:none;stroke:#000000;stroke-linecap:square;stroke-linejoin:miter;stroke-width:0.8;"/>
   </g>
   <g id="patch_5">
    <path d="M 57.6 307.584 
L 414.72 307.584 
" style="fill:none;stroke:#000000;stroke-linecap:square;stroke-linejoin:miter;stroke-width:0.8;"/>
   </g>
   <g id="patch_6">
    <path d="M 57.6 41.472 
L 414.72 41.472 
" style="fill:none;stroke:#000000;stroke-linecap:square;stroke-linejoin:miter;stroke-width:0.8;"/>
   </g>
  </g>
 </g>
 <defs>
  <clipPath id="p0253ad5db8">
   <rect height="266.112" width="357.12" x="57.6" y="41.472"/>
  </clipPath>
 </defs>
</svg>
