<?xml version="1.0" encoding="utf-8" standalone="no"?>
<!DOCTYPE svg PUBLIC "-//W3C//DTD SVG 1.1//EN"
  "http://www.w3.org/Graphics/SVG/1.1/DTD/svg11.dtd">
<!-- Created with matplotlib (https://matplotlib.org/) -->
<svg height="345.6pt" version="1.1" viewBox="0 0 460.8 345.6" width="460.8pt" xmlns="http://www.w3.org/2000/svg" xmlns:xlink="http://www.w3.org/1999/xlink">
 <defs>
  <style type="text/css">
*{stroke-linecap:butt;stroke-linejoin:round;}
  </style>
 </defs>
 <g id="figure_1">
  <g id="patch_1">
   <path d="M 0 345.6 
L 460.8 345.6 
L 460.8 0 
L 0 0 
z
" style="fill:#ffffff;"/>
  </g>
  <g id="patch_2">
   <path d="M 57.6 307.584 
L 414.72 307.584 
L 414.72 41.472 
L 57.6 41.472 
z
" style="fill:#ffffff;"/>
  </g>
  <g id="pane3d_1">
   <g id="patch_3">
    <path d="M 111.5121 257.909785 
L 182.694088 210.080695 
L 180.918743 75.0242 
L 107.180293 111.146345 
" style="fill:#f2f2f2;opacity:0.5;stroke:#f2f2f2;stroke-linejoin:miter;"/>
   </g>
  </g>
  <g id="pane3d_2">
   <g id="patch_4">
    <path d="M 182.694088 210.080695 
L 362.789025 225.354583 
L 366.615171 86.536736 
L 180.918743 75.0242 
" style="fill:#e6e6e6;opacity:0.5;stroke:#e6e6e6;stroke-linejoin:miter;"/>
   </g>
  </g>
  <g id="pane3d_3">
   <g id="patch_5">
    <path d="M 111.5121 257.909785 
L 306.970901 276.2883 
L 362.789025 225.354583 
L 182.694088 210.080695 
" style="fill:#ececec;opacity:0.5;stroke:#ececec;stroke-linejoin:miter;"/>
   </g>
  </g>
  <g id="axis3d_1">
   <g id="line2d_1">
    <path d="M 111.5121 257.909785 
L 306.970901 276.2883 
" style="fill:none;stroke:#000000;stroke-linecap:square;stroke-width:0.8;"/>
   </g>
   <g id="text_1">
    <!-- $b_x$ -->
    <defs>
     <path d="M 49.515625 33.40625 
Q 49.515625 40.484375 46.265625 44.484375 
Q 43.015625 48.484375 37.3125 48.484375 
Q 33.15625 48.484375 29.515625 46.453125 
Q 25.875 44.4375 23.1875 40.578125 
Q 20.359375 36.53125 18.71875 31.171875 
Q 17.09375 25.828125 17.09375 20.515625 
Q 17.09375 13.765625 20.28125 9.9375 
Q 23.484375 6.109375 29.109375 6.109375 
Q 33.34375 6.109375 36.953125 8.078125 
Q 40.578125 10.0625 43.3125 13.921875 
Q 46.09375 17.921875 47.796875 23.234375 
Q 49.515625 28.5625 49.515625 33.40625 
z
M 21.578125 46.390625 
Q 24.90625 50.875 29.90625 53.4375 
Q 34.90625 56 40.375 56 
Q 48.78125 56 53.734375 50.328125 
Q 58.6875 44.671875 58.6875 35.015625 
Q 58.6875 27.09375 55.78125 19.671875 
Q 52.875 12.25 47.515625 6.5 
Q 44 2.6875 39.40625 0.625 
Q 34.8125 -1.421875 29.78125 -1.421875 
Q 24.46875 -1.421875 20.5625 1.015625 
Q 16.65625 3.46875 14.203125 8.296875 
L 12.59375 0 
L 3.609375 0 
L 18.40625 75.984375 
L 27.390625 75.984375 
z
" id="DejaVuSans-Oblique-98"/>
     <path d="M 60.015625 54.6875 
L 34.90625 27.875 
L 50.296875 0 
L 39.984375 0 
L 28.421875 21.6875 
L 8.296875 0 
L -2.59375 0 
L 24.3125 28.8125 
L 10.015625 54.6875 
L 20.3125 54.6875 
L 30.8125 34.90625 
L 49.125 54.6875 
z
" id="DejaVuSans-Oblique-120"/>
    </defs>
    <g transform="translate(191.290288 300.019961)rotate(-354.628411)scale(0.1 -0.1)">
     <use transform="translate(0 0.015625)" xlink:href="#DejaVuSans-Oblique-98"/>
     <use transform="translate(63.476562 -16.390625)scale(0.7)" xlink:href="#DejaVuSans-Oblique-120"/>
    </g>
   </g>
   <g id="Line3DCollection_1">
    <path d="M 123.011987 258.991091 
L 193.319064 210.981801 
L 191.864627 75.702807 
" style="fill:none;stroke:#b0b0b0;stroke-width:0.8;"/>
    <path d="M 164.923485 262.931927 
L 232.011155 214.263285 
L 231.735469 78.174661 
" style="fill:none;stroke:#b0b0b0;stroke-width:0.8;"/>
    <path d="M 207.439283 266.929584 
L 271.211844 217.587903 
L 272.14661 80.680012 
" style="fill:none;stroke:#b0b0b0;stroke-width:0.8;"/>
    <path d="M 250.572549 270.9853 
L 310.931223 220.956512 
L 313.109108 83.219545 
" style="fill:none;stroke:#b0b0b0;stroke-width:0.8;"/>
    <path d="M 294.33683 275.100349 
L 351.179656 224.36999 
L 354.634323 85.793965 
" style="fill:none;stroke:#b0b0b0;stroke-width:0.8;"/>
   </g>
   <g id="xtick_1">
    <g id="line2d_2">
     <path d="M 123.627704 258.570648 
L 121.777727 259.833908 
" style="fill:none;stroke:#000000;stroke-linecap:square;stroke-width:0.8;"/>
    </g>
    <g id="text_2">
     <!-- −1.0 -->
     <defs>
      <path d="M 10.59375 35.5 
L 73.1875 35.5 
L 73.1875 27.203125 
L 10.59375 27.203125 
z
" id="DejaVuSans-8722"/>
      <path d="M 12.40625 8.296875 
L 28.515625 8.296875 
L 28.515625 63.921875 
L 10.984375 60.40625 
L 10.984375 69.390625 
L 28.421875 72.90625 
L 38.28125 72.90625 
L 38.28125 8.296875 
L 54.390625 8.296875 
L 54.390625 0 
L 12.40625 0 
z
" id="DejaVuSans-49"/>
      <path d="M 10.6875 12.40625 
L 21 12.40625 
L 21 0 
L 10.6875 0 
z
" id="DejaVuSans-46"/>
      <path d="M 31.78125 66.40625 
Q 24.171875 66.40625 20.328125 58.90625 
Q 16.5 51.421875 16.5 36.375 
Q 16.5 21.390625 20.328125 13.890625 
Q 24.171875 6.390625 31.78125 6.390625 
Q 39.453125 6.390625 43.28125 13.890625 
Q 47.125 21.390625 47.125 36.375 
Q 47.125 51.421875 43.28125 58.90625 
Q 39.453125 66.40625 31.78125 66.40625 
z
M 31.78125 74.21875 
Q 44.046875 74.21875 50.515625 64.515625 
Q 56.984375 54.828125 56.984375 36.375 
Q 56.984375 17.96875 50.515625 8.265625 
Q 44.046875 -1.421875 31.78125 -1.421875 
Q 19.53125 -1.421875 13.0625 8.265625 
Q 6.59375 17.96875 6.59375 36.375 
Q 6.59375 54.828125 13.0625 64.515625 
Q 19.53125 74.21875 31.78125 74.21875 
z
" id="DejaVuSans-48"/>
     </defs>
     <g transform="translate(105.660842 280.458048)scale(0.1 -0.1)">
      <use xlink:href="#DejaVuSans-8722"/>
      <use x="83.789062" xlink:href="#DejaVuSans-49"/>
      <use x="147.412109" xlink:href="#DejaVuSans-46"/>
      <use x="179.199219" xlink:href="#DejaVuSans-48"/>
     </g>
    </g>
   </g>
   <g id="xtick_2">
    <g id="line2d_3">
     <path d="M 165.511371 262.505447 
L 163.744994 263.786862 
" style="fill:none;stroke:#000000;stroke-linecap:square;stroke-width:0.8;"/>
    </g>
    <g id="text_3">
     <!-- −0.5 -->
     <defs>
      <path d="M 10.796875 72.90625 
L 49.515625 72.90625 
L 49.515625 64.59375 
L 19.828125 64.59375 
L 19.828125 46.734375 
Q 21.96875 47.46875 24.109375 47.828125 
Q 26.265625 48.1875 28.421875 48.1875 
Q 40.625 48.1875 47.75 41.5 
Q 54.890625 34.8125 54.890625 23.390625 
Q 54.890625 11.625 47.5625 5.09375 
Q 40.234375 -1.421875 26.90625 -1.421875 
Q 22.3125 -1.421875 17.546875 -0.640625 
Q 12.796875 0.140625 7.71875 1.703125 
L 7.71875 11.625 
Q 12.109375 9.234375 16.796875 8.0625 
Q 21.484375 6.890625 26.703125 6.890625 
Q 35.15625 6.890625 40.078125 11.328125 
Q 45.015625 15.765625 45.015625 23.390625 
Q 45.015625 31 40.078125 35.4375 
Q 35.15625 39.890625 26.703125 39.890625 
Q 22.75 39.890625 18.8125 39.015625 
Q 14.890625 38.140625 10.796875 36.28125 
z
" id="DejaVuSans-53"/>
     </defs>
     <g transform="translate(147.724435 284.516423)scale(0.1 -0.1)">
      <use xlink:href="#DejaVuSans-8722"/>
      <use x="83.789062" xlink:href="#DejaVuSans-48"/>
      <use x="147.412109" xlink:href="#DejaVuSans-46"/>
      <use x="179.199219" xlink:href="#DejaVuSans-53"/>
     </g>
    </g>
   </g>
   <g id="xtick_3">
    <g id="line2d_4">
     <path d="M 207.99847 266.496935 
L 206.318306 267.7969 
" style="fill:none;stroke:#000000;stroke-linecap:square;stroke-width:0.8;"/>
    </g>
    <g id="text_4">
     <!-- 0.0 -->
     <g transform="translate(194.58713 288.63358)scale(0.1 -0.1)">
      <use xlink:href="#DejaVuSans-48"/>
      <use x="63.623047" xlink:href="#DejaVuSans-46"/>
      <use x="95.410156" xlink:href="#DejaVuSans-48"/>
     </g>
    </g>
   </g>
   <g id="xtick_4">
    <g id="line2d_5">
     <path d="M 251.102137 270.546347 
L 249.510887 271.865267 
" style="fill:none;stroke:#000000;stroke-linecap:square;stroke-width:0.8;"/>
    </g>
    <g id="text_5">
     <!-- 0.5 -->
     <g transform="translate(237.882572 292.810805)scale(0.1 -0.1)">
      <use xlink:href="#DejaVuSans-48"/>
      <use x="63.623047" xlink:href="#DejaVuSans-46"/>
      <use x="95.410156" xlink:href="#DejaVuSans-53"/>
     </g>
    </g>
   </g>
   <g id="xtick_5">
    <g id="line2d_6">
     <path d="M 294.835892 274.654953 
L 293.336347 275.993247 
" style="fill:none;stroke:#000000;stroke-linecap:square;stroke-width:0.8;"/>
    </g>
    <g id="text_6">
     <!-- 1.0 -->
     <g transform="translate(281.814331 297.049424)scale(0.1 -0.1)">
      <use xlink:href="#DejaVuSans-49"/>
      <use x="63.623047" xlink:href="#DejaVuSans-46"/>
      <use x="95.410156" xlink:href="#DejaVuSans-48"/>
     </g>
    </g>
   </g>
  </g>
  <g id="axis3d_2">
   <g id="line2d_7">
    <path d="M 362.789025 225.354583 
L 306.970901 276.2883 
" style="fill:none;stroke:#000000;stroke-linecap:square;stroke-width:0.8;"/>
   </g>
   <g id="text_7">
    <!-- $b_y$ -->
    <defs>
     <path d="M 24.8125 -5.078125 
Q 18.5625 -15.578125 14.625 -18.1875 
Q 10.6875 -20.796875 4.59375 -20.796875 
L -2.484375 -20.796875 
L -0.984375 -13.28125 
L 4.203125 -13.28125 
Q 7.953125 -13.28125 10.59375 -11.234375 
Q 13.234375 -9.1875 16.5 -3.21875 
L 19.28125 2 
L 7.171875 54.6875 
L 16.703125 54.6875 
L 25.78125 12.796875 
L 50.875 54.6875 
L 60.296875 54.6875 
z
" id="DejaVuSans-Oblique-121"/>
    </defs>
    <g transform="translate(363.0476 279.170807)rotate(-42.380272)scale(0.1 -0.1)">
     <use transform="translate(0 0.015625)" xlink:href="#DejaVuSans-Oblique-98"/>
     <use transform="translate(63.476562 -16.390625)scale(0.7)" xlink:href="#DejaVuSans-Oblique-121"/>
    </g>
   </g>
   <g id="Line3DCollection_2">
    <path d="M 112.28317 108.646606 
L 116.424748 254.608845 
L 310.833646 272.763568 
" style="fill:none;stroke:#b0b0b0;stroke-width:0.8;"/>
    <path d="M 129.472897 100.2259 
L 132.988201 243.479416 
L 323.845823 260.890031 
" style="fill:none;stroke:#b0b0b0;stroke-width:0.8;"/>
    <path d="M 145.9542 92.152228 
L 148.890129 232.794483 
L 336.321746 249.505823 
" style="fill:none;stroke:#b0b0b0;stroke-width:0.8;"/>
    <path d="M 161.769989 84.404572 
L 164.169387 222.527939 
L 348.293897 238.581304 
" style="fill:none;stroke:#b0b0b0;stroke-width:0.8;"/>
    <path d="M 176.959774 76.963574 
L 178.861844 212.655682 
L 359.792185 228.089183 
" style="fill:none;stroke:#b0b0b0;stroke-width:0.8;"/>
   </g>
   <g id="xtick_6">
    <g id="line2d_8">
     <path d="M 309.227107 272.613543 
L 314.049288 273.063858 
" style="fill:none;stroke:#000000;stroke-linecap:square;stroke-width:0.8;"/>
    </g>
    <g id="text_8">
     <!-- −1.0 -->
     <g transform="translate(312.760662 291.990619)scale(0.1 -0.1)">
      <use xlink:href="#DejaVuSans-8722"/>
      <use x="83.789062" xlink:href="#DejaVuSans-49"/>
      <use x="147.412109" xlink:href="#DejaVuSans-46"/>
      <use x="179.199219" xlink:href="#DejaVuSans-48"/>
     </g>
    </g>
   </g>
   <g id="xtick_7">
    <g id="line2d_9">
     <path d="M 322.269689 260.746252 
L 327.000553 261.177815 
" style="fill:none;stroke:#000000;stroke-linecap:square;stroke-width:0.8;"/>
    </g>
    <g id="text_9">
     <!-- −0.5 -->
     <g transform="translate(325.47684 279.872433)scale(0.1 -0.1)">
      <use xlink:href="#DejaVuSans-8722"/>
      <use x="83.789062" xlink:href="#DejaVuSans-48"/>
      <use x="147.412109" xlink:href="#DejaVuSans-46"/>
      <use x="179.199219" xlink:href="#DejaVuSans-53"/>
     </g>
    </g>
   </g>
   <g id="xtick_8">
    <g id="line2d_10">
     <path d="M 334.774902 249.367906 
L 339.417802 249.781866 
" style="fill:none;stroke:#000000;stroke-linecap:square;stroke-width:0.8;"/>
    </g>
    <g id="text_10">
     <!-- 0.0 -->
     <g transform="translate(341.858806 268.253656)scale(0.1 -0.1)">
      <use xlink:href="#DejaVuSans-48"/>
      <use x="63.623047" xlink:href="#DejaVuSans-46"/>
      <use x="95.410156" xlink:href="#DejaVuSans-48"/>
     </g>
    </g>
   </g>
   <g id="xtick_9">
    <g id="line2d_11">
     <path d="M 346.775286 238.4489 
L 351.333398 238.84631 
" style="fill:none;stroke:#000000;stroke-linecap:square;stroke-width:0.8;"/>
    </g>
    <g id="text_11">
     <!-- 0.5 -->
     <g transform="translate(353.558616 257.104041)scale(0.1 -0.1)">
      <use xlink:href="#DejaVuSans-48"/>
      <use x="63.623047" xlink:href="#DejaVuSans-46"/>
      <use x="95.410156" xlink:href="#DejaVuSans-53"/>
     </g>
    </g>
   </g>
   <g id="xtick_10">
    <g id="line2d_12">
     <path d="M 358.300805 227.961967 
L 362.777137 228.343801 
" style="fill:none;stroke:#000000;stroke-linecap:square;stroke-width:0.8;"/>
    </g>
    <g id="text_12">
     <!-- 1.0 -->
     <g transform="translate(364.795343 246.395733)scale(0.1 -0.1)">
      <use xlink:href="#DejaVuSans-49"/>
      <use x="63.623047" xlink:href="#DejaVuSans-46"/>
      <use x="95.410156" xlink:href="#DejaVuSans-48"/>
     </g>
    </g>
   </g>
  </g>
  <g id="axis3d_3">
   <g id="line2d_13">
    <path d="M 362.789025 225.354583 
L 366.615171 86.536736 
" style="fill:none;stroke:#000000;stroke-linecap:square;stroke-width:0.8;"/>
   </g>
   <g id="text_13">
    <!-- $b_z$ -->
    <defs>
     <path d="M 11.625 54.6875 
L 54.296875 54.6875 
L 52.6875 46.484375 
L 11.53125 7.171875 
L 45.515625 7.171875 
L 44.09375 0 
L -0.296875 0 
L 1.3125 8.203125 
L 42.484375 47.515625 
L 10.203125 47.515625 
z
" id="DejaVuSans-Oblique-122"/>
    </defs>
    <g transform="translate(403.907694 158.123955)rotate(-88.421193)scale(0.1 -0.1)">
     <use transform="translate(0 0.015625)" xlink:href="#DejaVuSans-Oblique-98"/>
     <use transform="translate(63.476562 -16.390625)scale(0.7)" xlink:href="#DejaVuSans-Oblique-122"/>
    </g>
   </g>
   <g id="Line3DCollection_3">
    <path d="M 362.863263 222.661142 
L 182.65961 207.457849 
L 111.428215 255.067702 
" style="fill:none;stroke:#b0b0b0;stroke-width:0.8;"/>
    <path d="M 363.761224 190.081867 
L 182.242672 175.739962 
L 110.413041 220.673201 
" style="fill:none;stroke:#b0b0b0;stroke-width:0.8;"/>
    <path d="M 364.672516 157.018958 
L 181.81973 143.565348 
L 109.381833 185.735434 
" style="fill:none;stroke:#b0b0b0;stroke-width:0.8;"/>
    <path d="M 365.597436 123.461564 
L 181.390654 110.92407 
L 108.334207 150.241427 
" style="fill:none;stroke:#b0b0b0;stroke-width:0.8;"/>
    <path d="M 366.536294 89.398508 
L 180.955309 77.805901 
L 107.269768 114.177791 
" style="fill:none;stroke:#b0b0b0;stroke-width:0.8;"/>
   </g>
   <g id="xtick_11">
    <g id="line2d_14">
     <path d="M 361.378076 222.53584 
L 365.835808 222.911927 
" style="fill:none;stroke:#000000;stroke-linecap:square;stroke-width:0.8;"/>
    </g>
    <g id="text_14">
     <!-- −1.0 -->
     <g transform="translate(367.411392 228.108525)scale(0.1 -0.1)">
      <use xlink:href="#DejaVuSans-8722"/>
      <use x="83.789062" xlink:href="#DejaVuSans-49"/>
      <use x="147.412109" xlink:href="#DejaVuSans-46"/>
      <use x="179.199219" xlink:href="#DejaVuSans-48"/>
     </g>
    </g>
   </g>
   <g id="xtick_12">
    <g id="line2d_15">
     <path d="M 362.264878 189.96364 
L 366.756123 190.318496 
" style="fill:none;stroke:#000000;stroke-linecap:square;stroke-width:0.8;"/>
    </g>
    <g id="text_15">
     <!-- −0.5 -->
     <g transform="translate(368.428016 195.650745)scale(0.1 -0.1)">
      <use xlink:href="#DejaVuSans-8722"/>
      <use x="83.789062" xlink:href="#DejaVuSans-48"/>
      <use x="147.412109" xlink:href="#DejaVuSans-46"/>
      <use x="179.199219" xlink:href="#DejaVuSans-53"/>
     </g>
    </g>
   </g>
   <g id="xtick_13">
    <g id="line2d_16">
     <path d="M 363.16484 156.908029 
L 367.690106 157.240981 
" style="fill:none;stroke:#000000;stroke-linecap:square;stroke-width:0.8;"/>
    </g>
    <g id="text_16">
     <!-- 0.0 -->
     <g transform="translate(373.649511 162.71318)scale(0.1 -0.1)">
      <use xlink:href="#DejaVuSans-48"/>
      <use x="63.623047" xlink:href="#DejaVuSans-46"/>
      <use x="95.410156" xlink:href="#DejaVuSans-48"/>
     </g>
    </g>
   </g>
   <g id="xtick_14">
    <g id="line2d_17">
     <path d="M 364.078259 123.358165 
L 368.638064 123.668515 
" style="fill:none;stroke:#000000;stroke-linecap:square;stroke-width:0.8;"/>
    </g>
    <g id="text_17">
     <!-- 0.5 -->
     <g transform="translate(374.696526 129.28511)scale(0.1 -0.1)">
      <use xlink:href="#DejaVuSans-48"/>
      <use x="63.623047" xlink:href="#DejaVuSans-46"/>
      <use x="95.410156" xlink:href="#DejaVuSans-53"/>
     </g>
    </g>
   </g>
   <g id="xtick_15">
    <g id="line2d_18">
     <path d="M 365.005438 89.30288 
L 369.600314 89.589906 
" style="fill:none;stroke:#000000;stroke-linecap:square;stroke-width:0.8;"/>
    </g>
    <g id="text_18">
     <!-- 1.0 -->
     <g transform="translate(375.75925 95.355498)scale(0.1 -0.1)">
      <use xlink:href="#DejaVuSans-49"/>
      <use x="63.623047" xlink:href="#DejaVuSans-46"/>
      <use x="95.410156" xlink:href="#DejaVuSans-48"/>
     </g>
    </g>
   </g>
  </g>
  <g id="axes_1">
   <g id="line2d_19">
    <defs>
     <path d="M 0 3 
C 0.795609 3 1.55874 2.683901 2.12132 2.12132 
C 2.683901 1.55874 3 0.795609 3 0 
C 3 -0.795609 2.683901 -1.55874 2.12132 -2.12132 
C 1.55874 -2.683901 0.795609 -3 0 -3 
C -0.795609 -3 -1.55874 -2.683901 -2.12132 -2.12132 
C -2.683901 -1.55874 -3 -0.795609 -3 0 
C -3 0.795609 -2.683901 1.55874 -2.12132 2.12132 
C -1.55874 2.683901 -0.795609 3 0 3 
z
" id="m42c18da976" style="stroke:#ff0000;"/>
    </defs>
    <g clip-path="url(#pd9c0cf9786)">
     <use style="fill:#ff0000;stroke:#ff0000;" x="240.948125" xlink:href="#m42c18da976" y="101.296831"/>
    </g>
   </g>
   <g id="line2d_20">
    <defs>
     <path d="M 0 3 
C 0.795609 3 1.55874 2.683901 2.12132 2.12132 
C 2.683901 1.55874 3 0.795609 3 0 
C 3 -0.795609 2.683901 -1.55874 2.12132 -2.12132 
C 1.55874 -2.683901 0.795609 -3 0 -3 
C -0.795609 -3 -1.55874 -2.683901 -2.12132 -2.12132 
C -2.683901 -1.55874 -3 -0.795609 -3 0 
C -3 0.795609 -2.683901 1.55874 -2.12132 2.12132 
C -1.55874 2.683901 -0.795609 3 0 3 
z
" id="me044c6add8" style="stroke:#008000;"/>
    </defs>
    <g clip-path="url(#pd9c0cf9786)">
     <use style="fill:#008000;stroke:#008000;" x="240.949265" xlink:href="#me044c6add8" y="238.237249"/>
    </g>
   </g>
   <g id="line2d_21">
    <path clip-path="url(#pd9c0cf9786)" d="M 240.949265 238.237249 
L 241.869022 237.704843 
L 243.152376 237.228577 
L 244.669567 236.864566 
L 246.263444 236.662464 
L 247.761051 236.658161 
L 248.986213 236.86732 
L 249.772492 237.281066 
L 249.95486 237.554818 
L 249.975973 237.86483 
L 249.823341 238.203175 
L 249.487317 238.560824 
L 248.961389 238.927915 
L 247.330839 239.648599 
L 244.95027 240.281396 
L 241.898371 240.74944 
L 238.312924 240.992071 
L 234.384934 240.9713 
L 230.347979 240.674369 
L 226.463446 240.11208 
L 223.002865 239.313547 
L 220.228909 238.318888 
L 219.174447 237.761695 
L 218.376699 237.171784 
L 217.857977 236.554245 
L 217.63691 235.913853 
L 217.728096 235.255073 
L 218.141814 234.582124 
L 218.883795 233.899088 
L 219.955068 233.210056 
L 221.351874 232.519303 
L 223.065646 231.831464 
L 227.386117 230.48591 
L 232.755174 229.223644 
L 238.944173 228.108171 
L 245.667206 227.215029 
L 252.594138 226.626155 
L 259.365905 226.420229 
L 262.577621 226.481552 
L 265.611419 226.660316 
L 268.421976 226.959821 
L 270.965491 227.380832 
L 273.200269 227.921306 
L 275.087307 228.576193 
L 276.59087 229.33733 
L 277.67907 230.193436 
L 278.324422 231.130219 
L 278.504391 232.130593 
L 278.201906 233.175001 
L 277.40584 234.241845 
L 276.111449 235.308006 
L 274.320736 236.349439 
L 272.042756 237.341832 
L 269.293818 238.261295 
L 266.097583 239.085058 
L 262.485035 239.792156 
L 258.494324 240.364064 
L 254.170444 240.785256 
L 249.564773 241.043666 
L 244.734443 241.131016 
L 239.741564 241.043011 
L 234.652305 240.779375 
L 229.535855 240.343729 
L 224.463285 239.743319 
L 219.506342 238.988609 
L 214.736216 238.092754 
L 210.2223 237.07099 
L 206.031003 235.939983 
L 202.224619 234.717147 
L 198.860309 233.42 
L 195.989201 232.065583 
L 193.655635 230.669956 
L 191.896559 229.247826 
L 190.741073 227.81229 
L 190.210131 226.374727 
L 190.316382 224.944821 
L 191.064144 223.530705 
L 192.449494 222.139216 
L 194.460464 220.776232 
L 197.077317 219.447067 
L 200.272907 218.15688 
L 204.013093 216.911094 
L 208.257207 215.715769 
L 212.958558 214.577916 
L 218.064975 213.505726 
L 223.519372 212.5087 
L 229.26034 211.597653 
L 235.222753 210.784609 
L 241.338396 210.082567 
L 247.536604 209.505153 
L 253.744917 209.066165 
L 259.889753 208.779039 
L 265.897094 208.656244 
L 271.693184 208.708639 
L 277.205256 208.944824 
L 282.36227 209.370505 
L 287.095671 209.987911 
L 291.340169 210.795289 
L 295.034537 211.786511 
L 298.122418 212.950797 
L 300.553151 214.272605 
L 302.282593 215.731673 
L 303.273935 217.303241 
L 303.4985 218.958446 
L 302.936498 220.664887 
L 301.577738 222.387355 
L 299.422247 224.088695 
L 296.480794 225.730793 
L 292.77528 227.275637 
L 288.338969 228.68643 
L 283.216525 229.928702 
L 277.463836 230.971375 
L 271.147596 231.787746 
L 264.344633 232.356324 
L 257.140968 232.661494 
L 249.630618 232.693963 
L 241.914147 232.450962 
L 234.097009 231.936191 
L 226.28771 231.159516 
L 218.595846 230.136406 
L 211.130091 228.88717 
L 203.996186 227.436013 
L 197.295005 225.809975 
L 191.120759 224.037815 
L 185.559405 222.148891 
L 180.687282 220.172113 
L 176.570028 218.135013 
L 173.261777 216.062979 
L 170.804646 213.978695 
L 169.228492 211.90179 
L 168.550917 209.848713 
L 168.777501 207.832813 
L 169.9022 205.864617 
L 171.907905 203.952253 
L 174.767098 202.101998 
L 178.442588 200.318893 
L 182.888288 198.607396 
L 188.050021 196.972007 
L 193.866324 195.417854 
L 200.269247 193.951175 
L 207.185136 192.579682 
L 214.535393 191.312793 
L 222.237217 190.161694 
L 230.204325 189.139252 
L 238.347661 188.259751 
L 246.576094 187.538488 
L 254.797118 186.99122 
L 262.917558 186.633505 
L 270.844291 186.47995 
L 278.484993 186.543402 
L 285.748912 186.834123 
L 292.547689 187.358974 
L 298.796207 188.120666 
L 304.413495 189.117096 
L 309.323674 190.34081 
L 313.456939 191.778633 
L 316.750578 193.411484 
L 319.150014 195.214398 
L 320.609847 197.156774 
L 321.094891 199.202843 
L 320.581166 201.312363 
L 319.056827 203.44153 
L 316.522993 205.544061 
L 312.994432 207.572446 
L 308.50008 209.4793 
L 303.083331 211.218792 
L 296.802074 212.748066 
L 289.728432 214.028618 
L 281.948172 215.027558 
L 273.559769 215.718684 
L 264.67311 216.083332 
L 255.407852 216.11094 
L 245.891448 215.799288 
L 236.256901 215.154409 
L 226.640302 214.19016 
L 217.178221 212.927471 
L 208.005064 211.39332 
L 199.250466 209.619491 
L 191.036838 207.641169 
L 183.477143 205.495483 
L 176.672967 203.220052 
L 170.712969 200.851629 
L 165.671706 198.424909 
L 161.608869 195.971561 
L 158.568911 193.519522 
L 156.581035 191.092565 
L 155.659503 188.71016 
L 155.804203 186.387592 
L 157.001433 184.136319 
L 159.224827 181.964523 
L 162.436381 179.877801 
L 166.587526 177.879943 
L 171.620218 175.973747 
L 177.468 174.161814 
L 184.057035 172.447275 
L 191.307072 170.834415 
L 199.132372 169.329157 
L 207.442557 167.939375 
L 216.143419 166.675035 
L 225.137671 165.548143 
L 234.325673 164.572513 
L 243.606126 163.763347 
L 252.876761 163.136668 
L 262.035025 162.708613 
L 270.978794 162.494616 
L 279.607103 162.508528 
L 287.820923 162.761702 
L 295.523989 163.262084 
L 302.623678 164.013367 
L 309.031953 165.014228 
L 314.66636 166.257707 
L 319.451081 167.730759 
L 323.318036 169.414001 
L 326.208011 171.2817 
L 328.071797 173.301994 
L 328.871324 175.43737 
L 328.580749 177.645395 
L 327.187461 179.879674 
L 324.692985 182.091023 
L 321.113722 184.228817 
L 316.481484 186.242469 
L 310.843791 188.082974 
L 304.263869 189.704477 
L 296.82032 191.06577 
L 288.60643 192.131677 
L 279.729088 192.874232 
L 270.307318 193.273611 
L 260.470426 193.318738 
L 250.355806 193.007559 
L 240.106447 192.346934 
L 229.868214 191.352159 
L 219.787006 190.046148 
L 210.005873 188.458306 
L 200.662216 186.62316 
L 191.885162 184.578832 
L 183.793221 182.365441 
L 176.492289 180.023517 
L 170.074068 177.592527 
L 164.614922 175.109576 
L 160.175183 172.608357 
L 156.798887 170.118377 
L 154.5139 167.664498 
L 153.332379 165.266772 
L 153.251514 162.940576 
L 154.254473 160.696984 
L 156.311494 158.543359 
L 159.381063 156.484091 
L 163.411116 154.521433 
L 168.340243 152.656374 
L 174.098849 150.889494 
L 180.610254 149.22176 
L 187.791725 147.655203 
L 195.555424 146.193468 
L 203.809302 144.842169 
L 212.457905 143.609096 
L 221.403138 142.504219 
L 230.544987 141.539462 
L 239.78221 140.728365 
L 249.013009 140.085532 
L 258.135718 139.625945 
L 267.049491 139.364192 
L 275.655025 139.313593 
L 283.85532 139.485303 
L 291.556482 139.88742 
L 298.66858 140.524136 
L 305.106554 141.394982 
L 310.791173 142.494204 
L 315.650034 143.810304 
L 319.618602 145.325783 
L 322.641257 147.017105 
L 324.672344 148.854903 
L 325.677195 150.804429 
L 325.633091 152.826241 
L 324.530146 154.877129 
L 322.372053 156.911228 
L 319.17668 158.881307 
L 314.97646 160.740175 
L 309.818542 162.442144 
L 303.76467 163.944508 
L 296.890751 165.208959 
L 289.286091 166.202868 
L 281.052296 166.900386 
L 272.301812 167.283295 
L 263.156152 167.341564 
L 253.743818 167.073585 
L 244.197978 166.486035 
L 234.653966 165.593433 
L 225.246684 164.417353 
L 216.108 162.985361 
L 207.364222 161.329738 
L 199.133764 159.486056 
L 191.525056 157.491687 
L 184.634788 155.38433 
L 178.546524 153.200638 
L 173.329711 150.975011 
L 169.039092 148.73861 
L 165.714498 146.518637 
L 163.380993 144.337891 
L 162.049314 142.214605 
L 161.716559 140.162552 
L 162.367061 138.191383 
L 163.973383 136.307161 
L 166.497402 134.513033 
L 169.891408 132.810002 
L 174.099213 131.197736 
L 179.057212 129.675364 
L 184.695414 128.242221 
L 190.938391 126.898496 
L 197.706188 125.645751 
L 204.915154 124.487294 
L 212.478733 123.42838 
L 220.308204 122.476242 
L 228.313392 121.639952 
L 236.403355 120.930106 
L 244.48706 120.358374 
L 252.47406 119.936917 
L 260.275184 119.677698 
L 267.803233 119.591739 
L 274.973712 119.688334 
L 281.705577 119.97428 
L 287.922012 120.453143 
L 293.551229 121.124616 
L 298.527288 121.983987 
L 302.790919 123.021766 
L 306.290351 124.223483 
L 308.982114 125.569684 
L 310.831816 127.036128 
L 311.814858 128.594201 
L 311.917073 130.211523 
L 311.135275 131.852746 
L 309.477668 133.480507 
L 306.964122 135.056506 
L 303.626262 136.542672 
L 299.507377 137.902364 
L 294.662099 139.101553 
L 289.155862 140.109951 
L 283.064115 140.902005 
L 276.4713 141.457742 
L 269.469589 141.763392 
L 262.157411 141.811781 
L 254.637792 141.602454 
L 247.016541 141.141529 
L 239.400351 140.441291 
L 231.894851 139.519527 
L 224.602685 138.398677 
L 217.621673 137.1048 
L 211.043125 135.666448 
L 204.950342 134.113496 
L 199.417373 132.47599 
L 194.508028 130.783073 
L 190.275184 129.062047 
L 186.760377 127.337601 
L 183.993663 125.631248 
L 181.993731 123.960972 
L 180.768228 122.341097 
L 180.314264 120.78236 
L 180.619053 119.292163 
L 181.660651 117.874986 
L 183.408759 116.532903 
L 185.825562 115.266182 
L 188.866566 114.073913 
L 192.481431 112.954638 
L 196.614785 111.906931 
L 201.207001 110.929912 
L 206.194945 110.023663 
L 211.512696 109.189522 
L 222.864122 107.750093 
L 234.703921 106.650545 
L 246.47253 105.947025 
L 252.159665 105.763155 
L 257.628454 105.700795 
L 262.817327 105.765687 
L 267.668337 105.961744 
L 272.127773 106.29055 
L 276.14674 106.750916 
L 279.68173 107.338545 
L 282.695144 108.045814 
L 285.155781 108.861693 
L 287.039271 109.771807 
L 288.328439 110.758646 
L 289.013597 111.801923 
L 289.092753 112.879066 
L 288.57172 113.965817 
L 287.46413 115.036936 
L 285.791324 116.06696 
L 283.582135 117.031001 
L 280.87254 117.905538 
L 277.705197 118.669177 
L 274.128846 119.303342 
L 270.197595 119.792867 
L 265.970093 120.126453 
L 261.508599 120.296994 
L 256.877968 120.301723 
L 252.14457 120.142197 
L 247.375172 119.824115 
L 242.635806 119.356974 
L 237.990655 118.753585 
L 233.500996 118.029485 
L 229.224209 117.202252 
L 225.212902 116.290783 
L 221.514163 115.314562 
L 218.16895 114.292948 
L 215.211643 113.244534 
L 212.669756 112.186584 
L 210.563792 111.134587 
L 208.907259 110.101943 
L 207.706806 109.099762 
L 206.962479 108.136819 
L 206.668066 107.21961 
L 206.811521 106.352522 
L 207.375441 105.538099 
L 208.337582 104.777354 
L 209.671397 104.07014 
L 211.346585 103.415524 
L 213.329643 102.812152 
L 218.07265 101.753644 
L 223.589069 100.88704 
L 229.550632 100.213706 
L 235.628412 99.745179 
L 241.508357 99.499718 
L 246.905861 99.495312 
L 251.578877 99.741013 
L 255.33892 100.228827 
L 258.059213 100.928244 
L 259.007928 101.341195 
L 259.679319 101.784938 
L 260.07631 102.249531 
L 260.205835 102.724217 
L 260.078634 103.197756 
L 259.708997 103.658779 
L 259.114448 104.096165 
L 258.315382 104.499412 
L 256.197164 105.166652 
L 253.55862 105.601225 
L 250.620762 105.771406 
L 247.605142 105.676008 
L 244.718023 105.342633 
L 242.136161 104.821685 
L 239.995396 104.177493 
L 238.383025 103.478353 
L 237.334489 102.787402 
L 236.834425 102.155887 
L 236.821653 101.619722 
L 237.197293 101.199356 
L 237.835091 100.902274 
L 238.971318 100.682857 
L 239.89485 100.712154 
L 240.183656 100.853625 
L 240.183656 100.853625 
" style="fill:none;stroke:#1f77b4;stroke-linecap:square;stroke-width:2;"/>
   </g>
   <g id="text_19">
    <!-- $|1\rangle$ -->
    <defs>
     <path d="M 21 76.421875 
L 21 -23.578125 
L 12.703125 -23.578125 
L 12.703125 76.421875 
z
" id="DejaVuSans-124"/>
     <path d="M 30.078125 31.34375 
L 16.3125 -13.1875 
L 8.015625 -13.1875 
L 21.78125 31.34375 
L 8.015625 75.875 
L 16.3125 75.875 
z
" id="DejaVuSans-10217"/>
    </defs>
    <g transform="translate(240.948007 87.133183)scale(0.1 -0.1)">
     <use transform="translate(0 0.578125)" xlink:href="#DejaVuSans-124"/>
     <use transform="translate(33.691406 0.578125)" xlink:href="#DejaVuSans-49"/>
     <use transform="translate(97.314453 0.578125)" xlink:href="#DejaVuSans-10217"/>
    </g>
   </g>
   <g id="text_20">
    <!-- $|0\rangle$ -->
    <g transform="translate(240.949375 251.47862)scale(0.1 -0.1)">
     <use transform="translate(0 0.578125)" xlink:href="#DejaVuSans-124"/>
     <use transform="translate(33.691406 0.578125)" xlink:href="#DejaVuSans-48"/>
     <use transform="translate(97.314453 0.578125)" xlink:href="#DejaVuSans-10217"/>
    </g>
   </g>
  </g>
 </g>
 <defs>
  <clipPath id="pd9c0cf9786">
   <rect height="266.112" width="357.12" x="57.6" y="41.472"/>
  </clipPath>
 </defs>
</svg>
